<?xml version="1.0" encoding="utf-8"?>
<!-- Generator: Adobe Illustrator 16.0.0, SVG Export Plug-In . SVG Version: 6.00 Build 0)  -->
<!DOCTYPE svg PUBLIC "-//W3C//DTD SVG 1.1//EN" "http://www.w3.org/Graphics/SVG/1.1/DTD/svg11.dtd">
<svg version="1.1" id="Layer_1" xmlns="http://www.w3.org/2000/svg" xmlns:xlink="http://www.w3.org/1999/xlink" x="0px" y="0px"
	 width="245.987px" height="317.259px" viewBox="0 0 245.987 317.259" enable-background="new 0 0 245.987 317.259"
	 xml:space="preserve">
<polygon fill="#512C1D" points="119.549,293.339 110.661,293.339 87.608,296.344 87.608,299.09 113.98,299.09 114.438,296.71 
	114.896,299.09 119.549,299.09 "/>
<polygon fill="#512C1D" points="140.715,293.339 149.604,293.339 172.654,296.344 172.654,299.09 146.283,299.09 145.825,296.71 
	145.367,299.09 140.715,299.09 "/>
<path fill="#512C1D" d="M109.943,293.339l-2.275-128.611h46.023l-2.157,128.611h-11.562c0,0,4.624-102.661-7.214-107.241
	c-11.842-4.578-12.996,107.241-12.996,107.241H109.943z"/>
<polygon opacity="0.25" fill="#512C1D" points="153.561,171.302 153.662,166.529 107.7,166.529 107.807,171.302 "/>
<path opacity="0.5" fill="#512C1D" d="M107.869,176.075c0,0,8.035-0.595,8.951-9.546h-9.12L107.869,176.075z"/>
<path opacity="0.5" fill="#512C1D" d="M153.662,166.529l-0.17,10.097c0,0-10.054-1.251-10.818-10.195L153.662,166.529z"/>
<path fill="none" stroke="#9BDAD9" stroke-width="0.6566" stroke-miterlimit="10" stroke-dasharray="1.3131" d="M116.82,293.339
	c0,0-0.46-109.664,15.474-109.664c15.934,0,10.38,109.664,10.38,109.664"/>
<g>
	<path fill="#CCE9F2" d="M153.724,165.396l1.354-74.373c0,0-8.65-6.641-19.18-6.596l-10.856,0.048
		c-10.53,0.045-18.983,6.227-18.983,6.227l1.855,74.891L153.724,165.396z"/>
</g>
<path fill="#DBC5AF" d="M123.407,84.482l7.3,11.736l6.032-11.736C136.738,84.482,127.288,83.728,123.407,84.482z"/>
<polygon fill="#DBC5AF" points="136.752,84.425 135.241,84.096 135.185,71.016 124.661,76.582 124.694,84.195 123.407,84.482 
	127.725,87.956 127.736,91.022 132.417,90.99 132.241,89.003 133.117,87.464 "/>
<path opacity="0.25" fill="#DBC5AF" d="M124.78,81.141c4.101,2.775,7.776,3.904,11.958,3.342l0.014-0.058l-1.511-0.329l-0.056-13.08
	l-10.524,5.566l0.021,4.497C124.716,81.102,124.746,81.116,124.78,81.141z"/>
<path fill="#DBC5AF" d="M115.328,47.4c0.014,2.992-2.403,5.428-5.391,5.44c-2.993,0.013-5.43-2.401-5.443-5.394
	c-0.011-2.993,2.403-5.43,5.396-5.443C112.88,41.992,115.314,44.406,115.328,47.4z"/>
<circle fill="#DBC5AF" cx="148.97" cy="47.256" r="5.416"/>
<path fill="#DBC5AF" d="M108.717,24.71l3.323,33.956c0.046,11.254,6.033,20.352,17.286,20.303
	c11.248-0.048,17.156-9.197,17.109-20.449l3.031-33.984L108.717,24.71z"/>
<path opacity="0.25" fill="#DBC5AF" d="M122.146,43.618c-1.34-1.343-3.924-1.643-5.77-0.67c-1.849,0.976-2.262,2.852-0.923,4.194
	c1.342,1.344,3.925,1.641,5.773,0.669C123.074,46.835,123.486,44.96,122.146,43.618z"/>
<path fill="#FFFFFF" d="M122.146,43.301c-1.344-1.342-3.923-1.642-5.776-0.67c-1.844,0.975-2.255,2.853-0.916,4.191
	c1.342,1.345,3.922,1.646,5.769,0.673C123.072,46.521,123.485,44.644,122.146,43.301z"/>
<path fill="#DBC5AF" d="M115.428,42.762c0,0,4.778-0.922,7.59,0.751l-2.077-2.08l-3.733-0.311L115.428,42.762z"/>
<path fill="#F2F2F2" d="M121.218,46.699c-1.845,0.977-4.429,0.678-5.771-0.668c-0.421-0.423-0.65-0.901-0.734-1.387
	c-0.145,0.744,0.087,1.523,0.741,2.178c1.342,1.345,3.922,1.646,5.769,0.673c1.268-0.669,1.839-1.756,1.657-2.812
	C122.729,45.466,122.166,46.203,121.218,46.699z"/>
<path fill="#DBC5AF" d="M134.511,41.931c0,0,4.778-1.268,7.59,1.034l-2.076-2.864l-3.73-0.427L134.511,41.931z"/>
<path opacity="0.25" fill="#DBC5AF" d="M147.732,43.965c0,0,4.617-1.2,4.707,1.979c0.091,3.185-2.329,4.899-2.329,4.899
	s0.9-3.185-0.018-4.655S147.732,43.965,147.732,43.965z"/>
<path opacity="0.25" fill="#DBC5AF" d="M110.501,44.124c0,0-4.623-1.16-4.688,2.021c-0.063,3.185,2.372,4.878,2.372,4.878
	s-0.925-3.175-0.023-4.654C109.068,44.89,110.501,44.124,110.501,44.124z"/>
<path opacity="0.25" fill="#DBC5AF" d="M135.001,43.51c1.341-1.342,3.925-1.643,5.77-0.67c1.849,0.976,2.263,2.852,0.924,4.194
	c-1.343,1.345-3.926,1.642-5.774,0.669C134.073,46.728,133.662,44.852,135.001,43.51z"/>
<path fill="#FFFFFF" d="M135.001,43.192c1.344-1.342,3.923-1.642,5.777-0.67c1.844,0.974,2.255,2.853,0.917,4.191
	c-1.343,1.346-3.923,1.646-5.77,0.673C134.076,46.413,133.663,44.535,135.001,43.192z"/>
<path fill="#DBC5AF" d="M141.721,42.653c0,0-4.778-0.922-7.591,0.751l2.077-2.08l3.733-0.311L141.721,42.653z"/>
<path fill="#F2F2F2" d="M135.93,46.591c1.845,0.978,4.429,0.677,5.771-0.668c0.421-0.423,0.65-0.9,0.734-1.387
	c0.145,0.744-0.087,1.524-0.74,2.178c-1.343,1.346-3.923,1.646-5.77,0.673c-1.268-0.67-1.84-1.756-1.657-2.811
	C134.418,45.357,134.982,46.094,135.93,46.591z"/>
<g>
	<path fill="#F38B00" d="M132.453,39.632c0,0,0.676-0.851,2.03-1.592c0.671-0.376,1.504-0.744,2.459-0.948
		c0.481-0.087,0.986-0.142,1.507-0.139c0.518,0.001,1.045-0.006,1.574,0.07c0.526,0.043,1.054,0.153,1.558,0.296
		c0.261,0.091,0.476,0.144,0.765,0.265c0.214,0.102,0.425,0.201,0.633,0.3c0.208,0.098,0.412,0.194,0.612,0.289
		c0.202,0.129,0.399,0.255,0.592,0.377c0.187,0.128,0.376,0.239,0.541,0.371c0.156,0.141,0.307,0.276,0.452,0.407
		c0.302,0.238,0.501,0.556,0.703,0.791c0.171,0.267,0.312,0.505,0.388,0.72c0.17,0.421,0.164,0.7,0.164,0.7l-0.185,0.013
		c0,0-0.007-0.049-0.052-0.151c-0.033-0.103-0.11-0.244-0.22-0.415c-0.107-0.17-0.276-0.358-0.463-0.562
		c-0.226-0.179-0.431-0.416-0.748-0.582c-0.148-0.091-0.301-0.187-0.46-0.284c-0.164-0.088-0.347-0.152-0.524-0.232
		c-0.177-0.079-0.358-0.16-0.544-0.243c-0.211-0.065-0.428-0.132-0.647-0.2s-0.443-0.137-0.669-0.207
		c-0.155-0.038-0.413-0.074-0.615-0.112c-0.435-0.058-0.882-0.089-1.334-0.061c-0.448,0.013-0.902,0.081-1.34,0.175
		c-0.438,0.102-0.869,0.202-1.286,0.3c-0.42,0.092-0.829,0.177-1.227,0.243c-0.393,0.079-0.772,0.146-1.125,0.211
		c-1.406,0.264-2.45,0.365-2.45,0.365L132.453,39.632z"/>
</g>
<g>
	<path fill="#F38B00" d="M111.124,44.061c0,0,0.557-0.826,1.606-1.895c0.258-0.271,0.554-0.551,0.872-0.844
		c0.317-0.294,0.679-0.572,1.058-0.861c0.387-0.277,0.793-0.562,1.234-0.814c0.439-0.254,0.899-0.506,1.395-0.694
		c0.483-0.218,1.005-0.367,1.53-0.499c0.287-0.048,0.487-0.12,0.847-0.141c0.236-0.018,0.469-0.018,0.699-0.023
		c0.229,0.008,0.455,0.004,0.675,0.024c0.25,0.04,0.499,0.09,0.735,0.149c0.236,0.059,0.467,0.103,0.68,0.174
		c0.206,0.093,0.405,0.183,0.596,0.269c0.38,0.146,0.691,0.428,0.958,0.621c0.251,0.24,0.454,0.46,0.581,0.676
		c0.269,0.415,0.286,0.72,0.286,0.72l-0.168,0.077c0,0-0.192-0.154-0.568-0.311c-0.18-0.08-0.418-0.15-0.667-0.225
		c-0.279-0.044-0.542-0.138-0.884-0.153c-0.327-0.042-0.669-0.081-1.031-0.073c-0.18,0.001-0.359-0.015-0.546-0.031
		c-0.221,0.016-0.446,0.007-0.676,0.009c-0.229-0.011-0.462-0.017-0.698-0.04c-0.112-0.012-0.385-0.001-0.577-0.006
		c-0.424,0.013-0.865,0.073-1.302,0.187c-1.766,0.436-3.419,1.486-4.599,2.311c-1.18,0.846-1.896,1.516-1.896,1.516L111.124,44.061z
		"/>
</g>
<path opacity="0.25" fill="#DBC5AF" d="M123.986,57.54c0,0,1.536,1.996,4.316,1.967c1.472-0.017,3.173-1.42,3.173-1.42
	S125.587,58.056,123.986,57.54z"/>
<g>
	<path fill="#C1A78F" d="M129.523,47.147c0,0-0.447,1.124-1.29,2.74c-0.452,0.802-0.903,1.739-1.58,2.713
		c-0.331,0.463-0.718,1.031-1.034,1.443c-0.208,0.244-0.319,0.439-0.454,0.642c-0.111,0.218-0.249,0.446-0.31,0.673
		c-0.158,0.453-0.177,0.888-0.029,1.209c0.125,0.336,0.49,0.578,0.902,0.775c0.209,0.099,0.426,0.187,0.669,0.233
		c0.23,0.067,0.464,0.121,0.707,0.142c0.47,0.082,0.939,0.088,1.37,0.102c0.431,0.023,0.836-0.008,1.192-0.007
		c0.357,0.003,0.67-0.043,0.928-0.059c0.518-0.034,0.814-0.054,0.814-0.054l0.022-0.001c0.216-0.015,0.403,0.149,0.417,0.365
		c0.013,0.196-0.121,0.367-0.307,0.408c0,0-0.299,0.066-0.822,0.183c-0.264,0.048-0.579,0.132-0.954,0.174s-0.792,0.131-1.263,0.151
		c-0.471,0.019-0.98,0.049-1.536-0.004c-0.275-0.005-0.563-0.048-0.861-0.109c-0.295-0.039-0.601-0.131-0.914-0.25
		c-0.606-0.227-1.306-0.659-1.668-1.433c-0.37-0.761-0.298-1.609-0.08-2.283c0.097-0.356,0.261-0.654,0.418-0.97
		c0.186-0.304,0.381-0.621,0.559-0.827c0.416-0.519,0.678-0.919,1.014-1.364c0.334-0.409,0.618-0.878,0.9-1.303
		c0.29-0.421,0.564-0.819,0.817-1.187c0.477-0.758,0.912-1.368,1.21-1.802c0.292-0.439,0.475-0.682,0.475-0.682l0.004-0.005
		c0.132-0.174,0.379-0.208,0.553-0.075C129.54,46.797,129.587,46.987,129.523,47.147z"/>
</g>
<g>
	<path fill="#C1A78F" d="M125.706,67.963c0,0,0.531,0.302,1.325,0.586c0.394,0.144,0.855,0.272,1.345,0.351
		c0.243,0.051,0.496,0.067,0.751,0.079c0.252,0.04,0.515-0.006,0.77-0.001c0.257-0.03,0.515-0.05,0.767-0.091
		c0.248-0.072,0.502-0.096,0.742-0.163c0.237-0.083,0.472-0.147,0.698-0.206c0.218-0.085,0.426-0.169,0.625-0.234
		c0.402-0.125,0.715-0.303,0.96-0.383c0.24-0.091,0.386-0.136,0.386-0.136l0.035-0.011c0.178-0.055,0.367,0.045,0.422,0.223
		c0.035,0.113,0.006,0.232-0.064,0.316c0,0-0.1,0.12-0.292,0.316c-0.201,0.185-0.457,0.498-0.866,0.748
		c-0.197,0.135-0.411,0.284-0.652,0.419c-0.251,0.12-0.519,0.245-0.803,0.358c-0.288,0.104-0.602,0.184-0.918,0.256
		c-0.323,0.049-0.658,0.087-0.99,0.102c-0.336-0.029-0.672-0.014-0.995-0.091c-0.327-0.05-0.636-0.146-0.927-0.256
		c-0.298-0.087-0.554-0.256-0.802-0.38c-0.238-0.149-0.458-0.294-0.64-0.455c-0.751-0.612-1.018-1.216-1.018-1.216
		c-0.024-0.05-0.003-0.11,0.047-0.135C125.642,67.945,125.678,67.949,125.706,67.963z"/>
</g>
<polygon fill="#CCE9F2" points="107.914,165.592 106.545,101.396 112.693,165.592 "/>
<polygon fill="#CCE9F2" points="153.724,165.396 155.078,101.396 147.908,165.592 "/>
<path fill="#004456" d="M120.486,43.816c-0.705-0.965-2.056-1.183-3.025-0.481c-0.973,0.701-1.188,2.062-0.485,3.03
	c0.704,0.97,2.059,1.183,3.028,0.481C120.974,46.145,121.194,44.787,120.486,43.816z"/>
<path fill="#004456" d="M140.06,43.816c-0.705-0.965-2.057-1.183-3.026-0.481c-0.972,0.701-1.188,2.062-0.484,3.03
	c0.703,0.97,2.059,1.183,3.027,0.481C140.548,46.145,140.768,44.787,140.06,43.816z"/>
<g>
	<path fill="#DBC5AF" d="M113.268,97.447c0,0-0.167,0.372-0.479,1.07c-0.308,0.667-0.759,1.625-1.366,2.82
		c-1.222,2.392-3.016,5.757-5.662,9.624c-1.33,1.93-2.871,3.987-4.789,6.056c-1.922,2.051-4.193,4.184-7.357,5.858
		c-1.581,0.82-3.429,1.502-5.494,1.747c-2.06,0.256-4.292-0.032-6.228-0.768c-1.95-0.729-3.596-1.832-4.983-3.027
		c-1.384-1.205-2.498-2.521-3.524-3.852c-1.979-2.682-3.469-5.462-4.741-8.215c-1.263-2.757-2.31-5.494-3.221-8.153
		c-0.889-2.661-1.686-5.239-2.347-7.694c-0.345-1.226-0.658-2.42-0.943-3.578c-0.3-1.155-0.57-2.273-0.815-3.349
		c-1.017-4.295-1.716-7.888-2.205-10.401c-0.465-2.516-0.731-3.953-0.731-3.953l6.104-1.234c0,0,0.327,1.396,0.899,3.837
		c0.593,2.434,1.443,5.911,2.623,10.016c0.287,1.03,0.598,2.097,0.939,3.191c0.328,1.102,0.681,2.232,1.066,3.385
		c0.743,2.317,1.612,4.716,2.559,7.159c0.963,2.434,2.045,4.892,3.27,7.261c1.225,2.362,2.618,4.636,4.174,6.543
		c0.789,0.921,1.602,1.781,2.432,2.429c0.829,0.642,1.649,1.091,2.388,1.315c0.744,0.224,1.398,0.267,2.107,0.14
		c0.707-0.131,1.481-0.436,2.281-0.907c1.607-0.942,3.208-2.479,4.585-4.128c1.391-1.648,2.603-3.421,3.654-5.118
		c2.104-3.406,3.585-6.515,4.563-8.681c0.488-1.088,0.845-1.948,1.078-2.525c0.216-0.552,0.332-0.846,0.332-0.846L113.268,97.447z"
		/>
</g>
<g>
	<path fill="#CCE9F2" d="M117.938,103.375c0,0-0.321,0.236-0.883,0.65c-0.25,0.188-0.536,0.388-0.942,0.723
		c-0.391,0.312-0.831,0.664-1.312,1.049c-0.478,0.408-0.997,0.851-1.544,1.318c-0.552,0.464-1.129,0.964-1.71,1.513
		c-0.587,0.54-1.194,1.097-1.811,1.663c-0.618,0.566-1.209,1.189-1.822,1.786c-0.609,0.604-1.218,1.208-1.817,1.802
		c-0.576,0.621-1.142,1.231-1.69,1.822c-0.55,0.592-1.081,1.164-1.585,1.706c-0.513,0.535-0.941,1.091-1.367,1.578
		c-1.678,1.976-2.797,3.293-2.797,3.293l-11.811-8.756c0,0,1.124-1.566,2.809-3.916c0.431-0.581,0.862-1.238,1.384-1.885
		c0.514-0.652,1.055-1.341,1.616-2.054c0.562-0.712,1.143-1.449,1.732-2.197c0.621-0.726,1.251-1.464,1.882-2.201
		c0.638-0.734,1.251-1.486,1.903-2.193c0.653-0.706,1.295-1.401,1.917-2.074c0.614-0.679,1.238-1.317,1.841-1.917
		c0.6-0.603,1.167-1.172,1.691-1.697c0.549-0.519,1.053-0.995,1.499-1.416c0.423-0.409,0.895-0.817,1.258-1.139
		c0.681-0.591,1.07-0.929,1.07-0.929L117.938,103.375z"/>
</g>
<path fill="#DBC5AF" d="M170.08,183.611c0,0,1.047,6.152,6.778,6.444c2.825,0.143,3.218,7.197-3.622,3.819
	c0,0,3.625,8.302,1.633,9.91c-1.481,1.196-5.256-8.492-5.256-8.492s1.24,10.947-2.606,10.976
	c-1.777,0.013-1.048-11.321-1.048-11.321s-2.482,9.423-4.671,8.986c-2.086-0.417,1.75-10.058,1.75-10.058s-2.893,3.976-4.819,1.419
	c-1.067-1.418,6.413-7.138,5.681-12.254L170.08,183.611z"/>
<g>
	<path fill="#DBC5AF" d="M155.277,91.848c0,0,0.186,0.348,0.535,0.999c0.391,0.722,0.835,1.659,1.431,2.883
		c0.542,1.222,1.25,2.694,1.932,4.405c0.729,1.701,1.457,3.644,2.242,5.762c0.415,1.053,0.749,2.177,1.147,3.324
		c0.375,1.154,0.813,2.333,1.157,3.573c0.73,2.47,1.524,5.064,2.17,7.791c0.33,1.36,0.724,2.729,1.014,4.141
		c0.296,1.408,0.596,2.833,0.898,4.27c0.148,0.719,0.296,1.439,0.445,2.163c0.121,0.729,0.242,1.459,0.364,2.19
		c0.242,1.462,0.485,2.931,0.729,4.399c0.431,2.942,0.731,5.902,1.096,8.803c0.216,2.913,0.429,5.78,0.635,8.556
		c0.115,2.777,0.146,5.465,0.216,8.009c0.014,0.636,0.027,1.263,0.04,1.881c-0.016,0.617-0.032,1.227-0.048,1.824
		c-0.031,1.196-0.062,2.352-0.091,3.461c-0.081,2.218-0.056,4.252-0.245,6.046c-0.142,1.795-0.264,3.36-0.366,4.648
		c-0.204,2.575-0.32,4.046-0.32,4.046l-6.207-0.509c0,0,0.044-1.429,0.123-3.929c0.04-1.248,0.087-2.765,0.143-4.504
		c0.103-1.736-0.018-3.7-0.04-5.838c-0.022-1.069-0.045-2.183-0.068-3.335c-0.012-0.575-0.023-1.161-0.036-1.756
		c-0.041-0.593-0.083-1.195-0.125-1.806c-0.186-2.441-0.334-5.018-0.568-7.672c-0.322-2.646-0.655-5.378-0.994-8.155
		c-0.481-2.754-0.898-5.562-1.441-8.344c-0.297-1.385-0.595-2.771-0.892-4.149c-0.147-0.689-0.295-1.378-0.442-2.063
		c-0.174-0.68-0.348-1.356-0.52-2.031c-0.35-1.347-0.697-2.684-1.041-4.003c-0.335-1.322-0.772-2.597-1.143-3.866
		c-0.729-2.545-1.594-4.947-2.387-7.231c-0.375-1.15-0.841-2.229-1.24-3.291c-0.422-1.053-0.782-2.092-1.214-3.047
		c-0.823-1.931-1.579-3.697-2.319-5.217c-0.701-1.548-1.397-2.826-1.935-3.904c-0.568-1.036-1.02-1.884-1.303-2.345
		c-0.319-0.535-0.489-0.82-0.489-0.82L155.277,91.848z"/>
</g>
<g>
	<path fill="#CCE9F2" d="M154.786,90.865c0,0,0.065,0.094,0.187,0.27c0.114,0.158,0.321,0.485,0.568,0.866
		c0.247,0.384,0.566,0.87,0.862,1.366c0.31,0.511,0.66,1.087,1.042,1.715c0.359,0.631,0.748,1.315,1.159,2.039
		c0.416,0.724,0.843,1.49,1.25,2.293c0.417,0.801,0.849,1.629,1.287,2.471c0.438,0.843,0.827,1.718,1.246,2.584
		c0.412,0.871,0.824,1.741,1.229,2.598c0.37,0.87,0.734,1.727,1.087,2.555c0.352,0.831,0.693,1.634,1.016,2.396
		c0.334,0.759,0.576,1.5,0.839,2.173c1.01,2.709,1.683,4.515,1.683,4.515l-14.134,4.045c0,0-0.412-1.682-1.031-4.205
		c-0.164-0.628-0.3-1.325-0.52-2.036c-0.209-0.715-0.43-1.469-0.659-2.248c-0.229-0.782-0.464-1.591-0.704-2.412
		c-0.273-0.809-0.55-1.629-0.827-2.451c-0.284-0.818-0.54-1.654-0.843-2.449c-0.303-0.797-0.601-1.58-0.889-2.339
		c-0.28-0.767-0.578-1.487-0.869-2.165c-0.287-0.683-0.559-1.327-0.81-1.922c-0.265-0.58-0.508-1.111-0.724-1.582
		c-0.218-0.49-0.396-0.839-0.544-1.148c-0.152-0.311-0.251-0.532-0.365-0.737c-0.101-0.189-0.154-0.291-0.154-0.291L154.786,90.865z
		"/>
</g>
<path fill="#F38B00" d="M108.717,41.952c0,0-4.73-2.732-2.904-17.417c1.381-11.105,12.727-6.332,13.41-3.873
	c0,0,4.051-10.462,21.253-3.472c9.612,3.905,11.966-3.761,11.966-3.761s7.427,24.745-15.704,22.421
	c-15.837-1.591-20.176-6.075-20.176-6.075s-6.562,8.042-6.116,12.602L108.717,41.952z"/>
<path fill="#DBC5AF" d="M59.09,73.729c0,0-6.242-2.489-4.421-9.501l-3.25-11.353c0,0,3.25-0.743,5.331,4.594
	c2.081,5.338,2.34,6.759,2.34,6.759s4.161-2.35,6.241,0s-1.561,8.979-1.561,8.979L62.3,77.322L59.09,73.729z"/>
</svg>
