<?xml version="1.0" encoding="utf-8"?>
<!-- Generator: Adobe Illustrator 16.0.0, SVG Export Plug-In . SVG Version: 6.00 Build 0)  -->
<!DOCTYPE svg PUBLIC "-//W3C//DTD SVG 1.1//EN" "http://www.w3.org/Graphics/SVG/1.1/DTD/svg11.dtd">
<svg version="1.1" id="Layer_1" xmlns="http://www.w3.org/2000/svg" xmlns:xlink="http://www.w3.org/1999/xlink" x="0px" y="0px"
	 width="245.987px" height="317.259px" viewBox="0 0 245.987 317.259" enable-background="new 0 0 245.987 317.259"
	 xml:space="preserve">
<path fill="#9B7C57" d="M158.197,279.482l-9.067-122.091h43.703L182.27,279.519h-6.429c0,0,3.97-98.749-2.886-101.835
	c-10.871-5.212-8.451,101.523-8.451,101.523L158.197,279.482z"/>
<polygon fill="#99A4AE" points="188.042,212.771 192.832,157.392 149.129,157.392 153.242,212.771 "/>
<polygon opacity="0.15" fill="#333E48" points="192.708,161.367 192.804,156.836 149.16,156.836 149.261,161.367 "/>
<g>
	<path fill="#CFDB00" d="M192.832,157.392l-4.943-29.821l3.489-42.024c0,0-5.45-4.537-15.575-4.494l-10.439,0.046
		c-10.126,0.043-14.734,3.887-14.734,3.887l3.451,42.883l-4.952,29.524H192.832z"/>
</g>
<path fill="#9B7C57" d="M144.682,175.351c0,0-0.394,5.249-5.185,5.947c-2.361,0.342-2.134,6.298,3.343,2.921
	c0,0-2.388,7.259-0.589,8.452c1.339,0.888,3.744-7.548,3.744-7.548s-0.178,9.293,3.055,9.013c1.494-0.129-0.013-9.591-0.013-9.591
	s2.828,7.719,4.633,7.179c1.719-0.515-2.264-8.309-2.264-8.309s2.743,3.11,4.159,0.812c0.784-1.275-5.95-5.489-5.739-9.844
	L144.682,175.351z"/>
<g>
	<path fill="#99A4AE" d="M159.234,89.053c0,0-0.137,0.29-0.395,0.834c-0.232,0.476-0.588,1.331-1.039,2.379
		c-0.417,1.085-0.968,2.378-1.499,3.928c-0.572,1.527-1.135,3.291-1.748,5.22c-0.327,0.956-0.577,1.986-0.886,3.034
		c-0.286,1.056-0.633,2.133-0.888,3.271c-0.551,2.264-1.16,4.647-1.625,7.154c-0.24,1.252-0.542,2.514-0.742,3.812
		c-0.208,1.297-0.418,2.61-0.631,3.934c-0.104,0.663-0.208,1.328-0.312,1.995c-0.078,0.672-0.157,1.345-0.235,2.019
		c-0.158,1.351-0.316,2.706-0.474,4.062c-0.265,2.717-0.408,5.446-0.617,8.131c-0.07,2.692-0.139,5.343-0.205,7.907
		c0.019,2.566,0.111,5.049,0.158,7.406c0.016,0.589,0.03,1.17,0.046,1.742c0.043,0.571,0.085,1.134,0.127,1.687
		c0.083,1.106,0.163,2.176,0.24,3.202c0.175,2.051,0.239,3.943,0.497,5.599c0.212,1.661,0.397,3.11,0.549,4.303
		c0.304,2.389,0.478,3.753,0.478,3.753l-5.52,0.979c0,0-0.241-1.397-0.664-3.842c-0.211-1.224-0.467-2.71-0.762-4.414
		c-0.339-1.699-0.495-3.647-0.769-5.761c-0.126-1.058-0.258-2.16-0.394-3.302c-0.068-0.571-0.137-1.151-0.207-1.741
		c-0.042-0.592-0.085-1.193-0.128-1.802c-0.158-2.438-0.366-5.012-0.502-7.678c-0.049-2.672-0.099-5.433-0.149-8.237
		c0.091-2.805,0.117-5.661,0.269-8.514c0.103-1.425,0.206-2.851,0.308-4.27c0.052-0.711,0.103-1.42,0.154-2.127
		c0.079-0.704,0.157-1.406,0.235-2.106c0.161-1.399,0.322-2.789,0.48-4.161c0.152-1.374,0.408-2.718,0.603-4.048
		c0.376-2.663,0.906-5.213,1.385-7.637c0.219-1.217,0.534-2.381,0.79-3.518c0.279-1.132,0.499-2.235,0.802-3.277
		c0.563-2.093,1.086-4.013,1.632-5.701c0.5-1.694,1.045-3.162,1.455-4.376c0.46-1.22,0.801-2.154,1.108-2.872
		c0.275-0.651,0.421-0.999,0.421-0.999L159.234,89.053z"/>
</g>
<g>
	<path fill="#99A4AE" d="M190.583,84.145c0,0,0.23,0.331,0.664,0.952c0.113,0.167,0.239,0.354,0.378,0.559
		c0.12,0.19,0.25,0.397,0.391,0.621c0.273,0.447,0.624,0.962,0.945,1.539c0.334,0.577,0.704,1.216,1.105,1.91
		c0.373,0.701,0.776,1.459,1.207,2.269c0.443,0.806,0.854,1.681,1.296,2.6c0.43,0.923,0.937,1.875,1.361,2.902
		c0.442,1.02,0.903,2.083,1.381,3.183c0.476,1.1,0.89,2.261,1.358,3.44c0.96,2.353,1.76,4.895,2.662,7.498
		c0.449,1.303,0.803,2.654,1.217,4.007c0.387,1.359,0.837,2.721,1.181,4.118c0.35,1.396,0.703,2.802,1.057,4.215
		c0.363,1.409,0.71,2.827,0.983,4.26c0.294,1.428,0.589,2.855,0.882,4.277c0.143,0.711,0.301,1.418,0.429,2.128
		c0.116,0.712,0.232,1.421,0.347,2.128c0.23,1.413,0.458,2.814,0.683,4.199c0.235,1.384,0.449,2.752,0.589,4.105
		c0.322,2.701,0.634,5.312,0.93,7.789c0.191,2.482,0.372,4.829,0.539,6.995c0.083,1.083,0.163,2.12,0.238,3.106
		c0.038,0.988,0.074,1.926,0.108,2.807c0.062,1.761,0.115,3.296,0.16,4.56c0.088,2.527,0.139,3.971,0.139,3.971l-5.602,0.2
		c0,0-0.11-1.41-0.304-3.878c-0.096-1.233-0.213-2.731-0.348-4.449c-0.07-0.858-0.145-1.771-0.224-2.733
		c-0.115-0.959-0.237-1.967-0.363-3.018c-0.253-2.102-0.527-4.378-0.817-6.785c-0.391-2.39-0.802-4.909-1.229-7.516
		c-0.191-1.307-0.456-2.621-0.742-3.947c-0.275-1.328-0.553-2.672-0.834-4.026c-0.141-0.677-0.281-1.356-0.421-2.038
		c-0.153-0.679-0.336-1.352-0.502-2.03c-0.341-1.354-0.683-2.714-1.025-4.073c-0.32-1.365-0.712-2.709-1.119-4.041
		c-0.396-1.335-0.791-2.665-1.182-3.984c-0.385-1.32-0.872-2.593-1.294-3.87c-0.449-1.268-0.838-2.54-1.317-3.752
		c-0.961-2.422-1.816-4.795-2.812-6.953c-0.486-1.084-0.919-2.16-1.407-3.161c-0.487-1.002-0.957-1.969-1.408-2.897
		c-0.434-0.939-0.936-1.781-1.366-2.613c-0.441-0.824-0.852-1.611-1.282-2.314c-0.418-0.711-0.81-1.377-1.171-1.993
		c-0.379-0.594-0.728-1.14-1.042-1.633c-0.309-0.504-0.61-0.898-0.858-1.271c-0.125-0.183-0.242-0.351-0.348-0.506
		c-0.098-0.132-0.188-0.251-0.267-0.358c-0.29-0.398-0.542-0.711-0.542-0.711L190.583,84.145z"/>
</g>
<path fill="#99A4AE" d="M160.445,81.445l10.536,37.776l0.029,38.17h-21.88l4.952-29.524l-3.451-42.883
	C150.63,84.984,153.876,82.188,160.445,81.445z"/>
<path fill="#99A4AE" d="M181.452,81.445l-10.471,37.776l-0.094,38.17h21.88l-4.951-29.524l3.451-42.883
	C191.266,84.984,188.02,82.188,181.452,81.445z"/>
<line opacity="0.5" fill="none" stroke="#55565A" stroke-width="0.9205" stroke-linecap="round" stroke-linejoin="round" stroke-miterlimit="10" x1="170.98" y1="119.222" x2="170.98" y2="157.392"/>
<polygon fill="#9B7C57" points="163.792,81.105 170.812,95.023 176.612,81.105 170.812,81.715 "/>
<polygon fill="#CFDB00" points="163.792,81.105 159.775,85.331 166.212,89.093 164.405,90.033 170.812,95.023 "/>
<path fill="none" stroke="#CFDB00" stroke-width="0.434" stroke-linecap="round" stroke-linejoin="round" stroke-miterlimit="10" d="
	M163.374,81.797c-0.022-0.045-0.034-0.068-0.034-0.068l-3.27,3.539l6.143,3.825l-1.808,0.94l5.56,4.511"/>
<polygon fill="#CFDB00" points="177.831,81.105 181.847,85.331 175.41,89.093 177.218,90.033 170.812,95.023 "/>
<path fill="none" stroke="#CFDB00" stroke-width="0.434" stroke-linecap="round" stroke-linejoin="round" stroke-miterlimit="10" d="
	M178.249,81.797c0.022-0.045,0.034-0.068,0.034-0.068l3.271,3.539l-6.144,3.825l1.808,0.94l-5.56,4.511"/>
<g opacity="0.5">
	<path fill="#55565A" d="M159.941,81.869l-4.763,5.826l-0.027-0.488l8.051,7.482c0.182,0.169,0.192,0.454,0.028,0.64l-3.116,3.502
		l0.065-0.503l10.222,20.796c0.053,0.107,0.008,0.237-0.099,0.29c-0.106,0.053-0.234,0.01-0.289-0.095l-10.642-20.585
		c-0.087-0.167-0.057-0.365,0.061-0.499l0.004-0.004l3.104-3.514l0.028,0.64l-7.906-7.635l-0.007-0.007
		c-0.134-0.13-0.142-0.342-0.02-0.48l4.974-5.647c0.079-0.09,0.216-0.098,0.306-0.02C160.004,81.646,160.015,81.779,159.941,81.869z
		"/>
</g>
<g opacity="0.5">
	<path fill="#55565A" d="M182.351,81.588l4.975,5.647c0.123,0.14,0.114,0.352-0.019,0.48l-0.008,0.007l-7.906,7.635l0.028-0.64
		l3.104,3.514l0.003,0.004c0.125,0.142,0.143,0.341,0.062,0.499l-10.643,20.585c-0.055,0.106-0.186,0.147-0.292,0.093
		c-0.105-0.055-0.146-0.183-0.095-0.288l10.222-20.796l0.065,0.503l-3.116-3.502c-0.167-0.185-0.151-0.471,0.028-0.64l8.051-7.482
		l-0.026,0.488l-4.763-5.826c-0.076-0.093-0.062-0.229,0.031-0.306C182.142,81.49,182.274,81.501,182.351,81.588z"/>
</g>
<path fill="#9B7C57" d="M158.197,279.482c0,0-3.701,5.906-8.607,9.208c0,0,11.976-2.284,14.914-9.483L158.197,279.482z"/>
<path fill="#003B4C" d="M164.605,275.838c0,0-6.782,11.721-15.016,12.853c-3.683,0.507-12.606,5.429-0.653,6.183
	c8.442,0.531,7.282-2.261,8.337-4.219c1.055-1.959,3.917-5.622,5.474-5.046c1.557,0.575,0.572,9.02,0.572,9.02l1.184-0.029
	c0,0-0.484-7.011,1.474-10.928C167.937,279.753,165.51,276.507,164.605,275.838z"/>
<path fill="#9B7C57" d="M182.208,279.482c0,0,3.701,5.906,8.607,9.208c0,0-11.975-2.284-14.914-9.483L182.208,279.482z"/>
<path fill="#003B4C" d="M175.921,275.838c0,0,6.783,11.721,15.017,12.853c3.683,0.507,12.606,5.429,0.653,6.183
	c-8.442,0.531-7.282-2.261-8.337-4.219c-1.055-1.959-3.918-5.622-5.475-5.046c-1.557,0.575-0.572,9.02-0.572,9.02l-1.184-0.029
	c0,0,0.484-7.011-1.474-10.928C172.59,279.753,175.017,276.507,175.921,275.838z"/>
<rect x="185.275" y="182.948" fill="#003B4C" width="49.472" height="32.437"/>
<rect x="202.49" y="177.924" fill="none" stroke="#003B4C" stroke-width="2.8251" stroke-linejoin="round" stroke-miterlimit="10" width="15.044" height="9.023"/>
<path fill="#9B7C57" d="M207.191,174.383c0,0-5.94,3.706-0.841,5.55c0,0,2.003,2.233,3.45,0.57c0,0,2.375,1.789,3.532-0.525
	c0,0,4.816-1.021-0.555-5.749L207.191,174.383z"/>
<ellipse fill="#512C1D" cx="169.965" cy="41.829" rx="33.906" ry="29.317"/>
<path fill="#9B7C57" d="M167.747,84.112c0.884-0.772,2.077-1.265,3.59-1.265c1.292,0,2.351,0.361,3.184,0.946l2.811-2.351
	l-1.453-0.315l-0.054-12.579l-10.12,5.354l0.032,7.321l-1.238,0.276L167.747,84.112z"/>
<path opacity="0.25" fill="#DBC5AF" d="M165.819,78.286c3.944,2.669,7.478,3.754,11.5,3.214l0.013-0.057l-1.453-0.315l-0.054-12.579
	l-10.12,5.354l0.02,4.324C165.758,78.248,165.787,78.263,165.819,78.286z"/>
<path fill="#9B7C57" d="M150.373,24.021l3.196,32.652c0.044,10.822,5.801,19.57,16.622,19.523
	c10.816-0.046,16.498-8.845,16.452-19.664l2.915-32.68L150.373,24.021z"/>
<g>
	<path fill="#333E48" d="M159.197,45.726c0,0-0.035,0.004-0.095,0.01c-0.077,0.009-0.181,0.013-0.29,0.003
		c-0.223-0.011-0.54-0.086-0.791-0.277c-0.127-0.096-0.24-0.197-0.305-0.324c-0.079-0.116-0.143-0.224-0.161-0.326
		c-0.053-0.195-0.087-0.326-0.087-0.326c-0.028-0.104,0.033-0.209,0.136-0.237c0.085-0.022,0.175,0.017,0.217,0.09l0.028,0.049
		c0,0,0.051,0.089,0.128,0.223c0.028,0.073,0.093,0.126,0.156,0.181c0.053,0.067,0.134,0.099,0.208,0.129
		c0.149,0.061,0.319,0.056,0.447,0.026c0.067-0.011,0.109-0.027,0.135-0.038c0.041-0.015,0.063-0.022,0.063-0.022l0.016-0.006
		c0.228-0.083,0.479,0.035,0.562,0.263c0.082,0.228-0.035,0.479-0.263,0.562C159.269,45.715,159.231,45.723,159.197,45.726z"/>
</g>
<g>
	<path fill="#333E48" d="M158.772,46.467c0,0-0.034,0.003-0.094,0.009c-0.076,0.009-0.18,0.013-0.29,0.003
		c-0.223-0.011-0.54-0.086-0.791-0.277c-0.127-0.096-0.24-0.197-0.305-0.324c-0.079-0.116-0.144-0.224-0.16-0.326
		c-0.053-0.195-0.088-0.326-0.088-0.326c-0.028-0.103,0.033-0.209,0.136-0.236c0.086-0.023,0.175,0.016,0.217,0.089l0.028,0.049
		c0,0,0.051,0.089,0.128,0.223c0.028,0.073,0.093,0.126,0.156,0.181c0.053,0.067,0.134,0.099,0.208,0.129
		c0.149,0.061,0.319,0.056,0.447,0.026c0.067-0.011,0.109-0.027,0.135-0.038c0.041-0.015,0.064-0.022,0.064-0.022l0.016-0.006
		c0.228-0.083,0.479,0.035,0.562,0.263s-0.035,0.479-0.263,0.562C158.845,46.455,158.808,46.463,158.772,46.467z"/>
</g>
<path opacity="0.25" fill="#DBC5AF" d="M165.355,45.311c-1.29-1.291-3.774-1.579-5.548-0.644c-1.778,0.938-2.176,2.741-0.888,4.032
	c1.291,1.293,3.774,1.578,5.552,0.645C166.247,48.404,166.644,46.601,165.355,45.311z"/>
<path fill="#FFFFFF" d="M165.355,45.006c-1.292-1.291-3.773-1.579-5.555-0.645c-1.774,0.937-2.169,2.743-0.881,4.031
	c1.291,1.293,3.771,1.582,5.547,0.646C166.246,48.103,166.643,46.297,165.355,45.006z"/>
<path fill="#9B7C57" d="M158.894,44.487c0,0,4.595-0.887,7.299,0.723l-1.997-2.001l-3.59-0.299L158.894,44.487z"/>
<path fill="#F2F2F2" d="M164.462,48.273c-1.774,0.939-4.259,0.651-5.549-0.643c-0.405-0.406-0.625-0.866-0.706-1.334
	c-0.139,0.717,0.083,1.466,0.712,2.096c1.291,1.293,3.771,1.582,5.547,0.646c1.219-0.644,1.769-1.689,1.593-2.703
	C165.916,47.088,165.374,47.796,164.462,48.273z"/>
<path fill="#9B7C57" d="M175.405,43.688c0,0,4.595-1.22,7.299,0.994l-1.997-2.754l-3.587-0.411L175.405,43.688z"/>
<path opacity="0.25" fill="#DBC5AF" d="M175.877,45.206c1.29-1.29,3.774-1.579,5.548-0.644c1.778,0.938,2.176,2.742,0.888,4.033
	c-1.291,1.293-3.775,1.578-5.552,0.644C174.985,48.301,174.589,46.496,175.877,45.206z"/>
<g>
	<path fill="#333E48" d="M182.173,44.884c0,0,0.023,0.008,0.064,0.022c0.025,0.011,0.067,0.027,0.135,0.038
		c0.128,0.029,0.298,0.034,0.447-0.026c0.074-0.03,0.155-0.062,0.208-0.129c0.062-0.055,0.128-0.107,0.156-0.181
		c0.077-0.134,0.129-0.223,0.129-0.223l0.028-0.049c0.054-0.092,0.172-0.124,0.264-0.07c0.078,0.045,0.112,0.136,0.09,0.218
		c0,0-0.035,0.131-0.088,0.326c-0.017,0.103-0.082,0.21-0.16,0.326c-0.066,0.127-0.178,0.229-0.305,0.324
		c-0.252,0.191-0.568,0.267-0.791,0.277c-0.11,0.01-0.214,0.006-0.29-0.003c-0.061-0.006-0.095-0.01-0.095-0.01
		c-0.241-0.023-0.417-0.238-0.393-0.479c0.024-0.24,0.239-0.416,0.479-0.393c0.037,0.004,0.071,0.012,0.104,0.023L182.173,44.884z"
		/>
</g>
<g>
	<path fill="#333E48" d="M182.597,45.624c0,0,0.023,0.008,0.064,0.022c0.025,0.011,0.067,0.027,0.135,0.038
		c0.128,0.029,0.298,0.034,0.447-0.026c0.074-0.03,0.155-0.062,0.208-0.129c0.062-0.055,0.128-0.107,0.156-0.181
		c0.077-0.134,0.129-0.223,0.129-0.223l0.028-0.048c0.053-0.093,0.172-0.124,0.264-0.071c0.077,0.045,0.112,0.136,0.09,0.218
		c0,0-0.035,0.131-0.088,0.326c-0.017,0.103-0.082,0.21-0.161,0.326c-0.065,0.127-0.178,0.229-0.305,0.324
		c-0.252,0.191-0.568,0.267-0.792,0.277c-0.109,0.01-0.213,0.006-0.29-0.003c-0.06-0.006-0.094-0.009-0.094-0.009
		c-0.241-0.024-0.417-0.239-0.393-0.48c0.024-0.24,0.239-0.416,0.479-0.393c0.037,0.004,0.071,0.012,0.104,0.023L182.597,45.624z"/>
</g>
<path fill="#FFFFFF" d="M175.877,44.901c1.292-1.29,3.773-1.579,5.555-0.645c1.773,0.937,2.169,2.743,0.881,4.031
	c-1.291,1.293-3.772,1.582-5.548,0.646C174.987,47.998,174.59,46.192,175.877,44.901z"/>
<path fill="#9B7C57" d="M182.338,44.383c0,0-4.595-0.887-7.3,0.723l1.997-2l3.59-0.3L182.338,44.383z"/>
<path fill="#F2F2F2" d="M176.77,48.17c1.774,0.939,4.259,0.65,5.549-0.643c0.405-0.407,0.625-0.866,0.706-1.334
	c0.139,0.716-0.083,1.466-0.712,2.095c-1.291,1.293-3.772,1.582-5.548,0.646c-1.22-0.644-1.769-1.688-1.594-2.703
	C175.316,46.983,175.858,47.691,176.77,48.17z"/>
<path fill="#004456" d="M161.959,45.071c-0.677-0.928-1.977-1.138-2.909-0.463c-0.936,0.674-1.143,1.981-0.466,2.913
	c0.676,0.933,1.979,1.138,2.912,0.463C162.429,47.31,162.641,46.005,161.959,45.071z"/>
<path fill="#004456" d="M178.942,45.071c-0.677-0.928-1.977-1.138-2.91-0.463c-0.935,0.674-1.143,1.981-0.466,2.913
	c0.677,0.933,1.98,1.138,2.912,0.463C179.412,47.31,179.624,46.005,178.942,45.071z"/>
<g>
	<path fill="#512C1D" d="M174.417,43.029c0,0,0.407-0.813,1.374-1.605c0.48-0.396,1.08-0.83,1.836-1.091
		c0.762-0.244,1.626-0.404,2.563-0.393c0.446-0.008,1.034,0.17,1.354,0.329c0.436,0.206,0.758,0.422,1.083,0.649
		c0.637,0.45,1.149,0.942,1.585,1.359c0.867,0.843,1.362,1.473,1.362,1.473c0.03,0.037,0.024,0.093-0.013,0.123
		c-0.032,0.025-0.078,0.024-0.108,0.001c0,0-0.627-0.49-1.605-1.145c-0.49-0.323-1.078-0.679-1.713-0.993
		c-0.312-0.153-0.667-0.302-0.956-0.384c-0.405-0.12-0.601-0.134-0.951-0.092c-0.651,0.072-1.316,0.419-1.925,0.726
		c-0.618,0.301-1.249,0.507-1.804,0.69c-1.1,0.379-1.979,0.493-1.979,0.493c-0.054,0.007-0.103-0.031-0.11-0.085
		C174.405,43.066,174.408,43.046,174.417,43.029z"/>
</g>
<g>
	<path fill="#512C1D" d="M167.143,43.171c0,0-0.879-0.114-1.979-0.493c-0.555-0.184-1.186-0.39-1.804-0.69
		c-0.609-0.307-1.274-0.653-1.926-0.726c-0.35-0.042-0.545-0.028-0.951,0.092c-0.288,0.082-0.643,0.23-0.955,0.384
		c-0.635,0.314-1.224,0.67-1.714,0.993c-0.978,0.654-1.605,1.145-1.605,1.145c-0.038,0.029-0.093,0.022-0.123-0.016
		c-0.025-0.032-0.023-0.078,0.001-0.108c0,0,0.496-0.63,1.362-1.473c0.436-0.417,0.948-0.909,1.585-1.359
		c0.324-0.228,0.646-0.443,1.083-0.649c0.32-0.159,0.908-0.337,1.354-0.329c0.937-0.012,1.801,0.148,2.562,0.393
		c0.757,0.261,1.356,0.695,1.836,1.091c0.967,0.792,1.374,1.605,1.374,1.605c0.024,0.049,0.005,0.107-0.043,0.132
		C167.182,43.17,167.162,43.174,167.143,43.171z"/>
</g>
<g>
	<path fill="#333E48" d="M175.72,44.94c0,0,0.002-0.025,0.049-0.101c0.044-0.08,0.115-0.13,0.21-0.214
		c0.198-0.134,0.501-0.285,0.878-0.381c0.376-0.117,0.822-0.182,1.3-0.252c0.239-0.023,0.487-0.047,0.738-0.071
		c0.25-0.035,0.531-0.018,0.772-0.027c0.255,0,0.5-0.021,0.771,0.023c0.263,0.04,0.531,0.039,0.778,0.116
		c0.245,0.084,0.495,0.113,0.711,0.241c0.219,0.112,0.433,0.212,0.597,0.37c0.182,0.133,0.313,0.289,0.424,0.435
		c0.125,0.14,0.179,0.277,0.25,0.385c0.115,0.209,0.168,0.32,0.168,0.32l0.012,0.025c0.102,0.217,0.01,0.477-0.208,0.578
		c-0.217,0.103-0.476,0.01-0.579-0.207c-0.005-0.01-0.009-0.021-0.013-0.031c0,0-0.046-0.122-0.13-0.308
		c-0.046-0.08-0.082-0.203-0.161-0.299c-0.068-0.107-0.148-0.226-0.27-0.327c-0.099-0.123-0.258-0.207-0.417-0.309
		c-0.15-0.115-0.369-0.154-0.563-0.243c-0.201-0.086-0.432-0.099-0.656-0.156c-0.219-0.062-0.483-0.063-0.733-0.084
		c-0.264-0.012-0.491-0.05-0.738-0.036c-0.246,0.004-0.488,0.007-0.722,0.01c-0.464,0.029-0.902,0.056-1.261,0.137
		c-0.367,0.061-0.647,0.177-0.825,0.274c-0.074,0.054-0.151,0.107-0.164,0.133c-0.025,0.021-0.038,0.058-0.038,0.058
		c-0.017,0.051-0.07,0.077-0.121,0.061c-0.042-0.014-0.068-0.055-0.065-0.098L175.72,44.94z"/>
</g>
<g>
	<path fill="#333E48" d="M165.257,45c0,0-0.012-0.037-0.039-0.058c-0.012-0.025-0.089-0.079-0.164-0.133
		c-0.178-0.098-0.458-0.214-0.825-0.274c-0.358-0.081-0.797-0.107-1.261-0.137c-0.234-0.003-0.476-0.006-0.722-0.01
		c-0.247-0.014-0.473,0.024-0.737,0.036c-0.25,0.021-0.515,0.021-0.733,0.084c-0.225,0.058-0.456,0.07-0.656,0.156
		c-0.195,0.089-0.414,0.128-0.564,0.243c-0.159,0.102-0.317,0.186-0.417,0.309c-0.121,0.102-0.202,0.22-0.27,0.327
		c-0.079,0.096-0.114,0.219-0.161,0.299c-0.083,0.186-0.129,0.308-0.129,0.308c-0.085,0.225-0.336,0.337-0.561,0.252
		c-0.225-0.085-0.337-0.336-0.252-0.561c0.004-0.01,0.008-0.021,0.013-0.03l0.012-0.026c0,0,0.052-0.111,0.168-0.32
		c0.072-0.107,0.126-0.245,0.251-0.385c0.111-0.146,0.242-0.302,0.424-0.435c0.164-0.158,0.377-0.258,0.597-0.37
		c0.216-0.128,0.466-0.157,0.711-0.241c0.247-0.077,0.515-0.076,0.778-0.116c0.271-0.045,0.516-0.023,0.771-0.023
		c0.242,0.01,0.521-0.008,0.772,0.027c0.251,0.024,0.499,0.048,0.739,0.071c0.478,0.07,0.924,0.135,1.3,0.252
		c0.377,0.096,0.681,0.247,0.878,0.381c0.096,0.084,0.167,0.134,0.21,0.214c0.048,0.075,0.05,0.101,0.05,0.101l0.001,0.022
		c0.004,0.053-0.035,0.099-0.088,0.103C165.311,45.068,165.271,45.041,165.257,45z"/>
</g>
<g>
	<path fill="#664B30" d="M170.565,50.984c-0.135,1.017-0.421,2.001-0.902,2.933c-0.13,0.227-0.255,0.46-0.417,0.673
		c-0.146,0.223-0.333,0.42-0.512,0.624c-0.203,0.184-0.398,0.379-0.637,0.528c-0.222,0.173-0.485,0.279-0.738,0.409l0.281-0.662
		c0.064,0.162,0.169,0.368,0.276,0.543c0.107,0.183,0.229,0.356,0.36,0.522c0.263,0.33,0.573,0.62,0.924,0.842
		c0.174,0.117,0.364,0.198,0.558,0.279c0.199,0.055,0.399,0.131,0.611,0.142c0.21,0.037,0.424,0.026,0.64,0.017
		c0.217-0.008,0.429-0.071,0.647-0.103l0.04-0.006c0.105-0.016,0.203,0.058,0.218,0.162c0.015,0.098-0.047,0.188-0.14,0.214
		c-0.232,0.062-0.461,0.154-0.703,0.19c-0.243,0.039-0.488,0.076-0.739,0.061c-0.251,0.012-0.5-0.048-0.749-0.092
		c-0.243-0.069-0.486-0.146-0.712-0.263c-0.456-0.224-0.864-0.532-1.216-0.888c-0.176-0.179-0.341-0.368-0.491-0.569
		c-0.154-0.204-0.286-0.396-0.42-0.65l-0.234-0.441l0.515-0.222c0.195-0.083,0.406-0.138,0.588-0.258
		c0.197-0.095,0.366-0.239,0.546-0.37c0.162-0.155,0.335-0.302,0.479-0.482c0.156-0.168,0.286-0.365,0.421-0.555
		c0.51-0.789,0.879-1.708,1.094-2.643l0.002-0.01c0.026-0.111,0.138-0.182,0.25-0.156C170.512,50.778,170.58,50.88,170.565,50.984z"
		/>
</g>
<g>
	<path fill="#664B30" d="M166.252,65.635c0,0,0.117,0.083,0.329,0.209c0.208,0.131,0.519,0.295,0.896,0.454
		c0.375,0.166,0.823,0.317,1.309,0.415c0.241,0.058,0.494,0.086,0.751,0.104c0.253,0.045,0.518,0.005,0.776,0.014
		c0.259-0.026,0.519-0.049,0.773-0.089c0.249-0.07,0.503-0.102,0.742-0.172c0.235-0.084,0.466-0.156,0.688-0.223
		c0.215-0.09,0.418-0.176,0.606-0.255c0.386-0.142,0.686-0.322,0.909-0.424c0.221-0.107,0.355-0.161,0.355-0.161l0.021-0.008
		c0.11-0.044,0.235,0.009,0.279,0.119c0.033,0.081,0.012,0.171-0.046,0.229c0,0-0.103,0.104-0.297,0.274
		c-0.205,0.153-0.453,0.444-0.846,0.662c-0.19,0.12-0.395,0.253-0.624,0.374c-0.237,0.106-0.489,0.217-0.755,0.32
		c-0.27,0.094-0.562,0.162-0.855,0.231c-0.299,0.046-0.609,0.079-0.917,0.096c-0.31-0.024-0.622-0.004-0.921-0.072
		c-0.303-0.042-0.591-0.121-0.863-0.218c-0.278-0.076-0.521-0.222-0.756-0.329c-0.226-0.132-0.438-0.256-0.615-0.397
		c-0.366-0.264-0.613-0.549-0.786-0.74c-0.167-0.197-0.241-0.329-0.241-0.329c-0.019-0.029-0.009-0.068,0.021-0.087
		C166.205,65.62,166.233,65.622,166.252,65.635z"/>
</g>
<path fill="#512C1D" d="M148.503,39.199c0,0,16.369-2.025,15.996-17.069l-14.662,1.571L148.503,39.199z"/>
<path fill="#512C1D" d="M159.092,22.13c0,0,8.36,16.057,31.36,17.069l0.868-13.164c0,0,0.383-4.194-9.573-3.905
	C171.792,22.419,159.092,22.13,159.092,22.13z"/>
<path fill="#DBC5AF" d="M89.903,180.961c0,0,0.465,5.37,5.355,6.082c2.41,0.35,2.178,6.429-3.413,2.981c0,0,2.438,7.41,0.602,8.627
	c-1.367,0.906-3.822-7.704-3.822-7.704s0.182,9.486-3.118,9.199c-1.523-0.132,0.014-9.789,0.014-9.789s-2.886,7.878-4.729,7.327
	c-1.754-0.525,2.311-8.48,2.311-8.48s-2.801,3.175-4.245,0.827c-0.801-1.301,4.775-5.318,5.789-9.944L89.903,180.961z"/>
<g>
	<path fill="#F38B00" d="M83.588,86.57c0,0,0.154,0.367,0.444,1.057c0.326,0.763,0.685,1.75,1.169,3.038
		c0.431,1.282,1.004,2.833,1.53,4.622c0.575,1.783,1.125,3.809,1.716,6.018c0.319,1.101,0.55,2.265,0.843,3.459
		c0.268,1.199,0.599,2.428,0.829,3.711c0.503,2.558,1.058,5.248,1.451,8.057c0.205,1.402,0.473,2.82,0.631,4.27
		c0.166,1.447,0.333,2.912,0.502,4.389c0.081,0.737,0.163,1.479,0.245,2.222c0.053,0.745,0.106,1.493,0.16,2.242
		c0.106,1.497,0.213,3,0.319,4.503c0.157,3.007,0.18,6.02,0.273,8.977c-0.057,2.957-0.113,5.867-0.167,8.684
		c-0.146,2.811-0.369,5.522-0.539,8.094c-0.046,0.642-0.092,1.275-0.138,1.899c-0.075,0.621-0.148,1.233-0.22,1.835
		c-0.145,1.203-0.285,2.364-0.419,3.48c-0.291,2.227-0.458,4.28-0.818,6.07c-0.312,1.797-0.584,3.362-0.808,4.651
		c-0.448,2.576-0.705,4.049-0.705,4.049l-6.132-1.088c0,0,0.181-1.436,0.498-3.949c0.159-1.256,0.352-2.78,0.572-4.528
		c0.269-1.742,0.334-3.734,0.515-5.892c0.08-1.08,0.163-2.205,0.249-3.369c0.043-0.582,0.086-1.173,0.131-1.774
		c0.015-0.602,0.031-1.213,0.046-1.833c0.045-2.479,0.139-5.091,0.156-7.791c-0.074-2.698-0.149-5.485-0.227-8.318
		c-0.224-2.823-0.377-5.694-0.66-8.552c-0.168-1.425-0.336-2.851-0.504-4.27c-0.083-0.71-0.167-1.418-0.25-2.123
		c-0.111-0.702-0.222-1.401-0.332-2.099c-0.225-1.392-0.448-2.771-0.668-4.136c-0.212-1.365-0.532-2.692-0.785-4.008
		c-0.493-2.636-1.137-5.142-1.719-7.521c-0.27-1.196-0.636-2.328-0.938-3.438c-0.326-1.102-0.59-2.185-0.935-3.188
		c-0.646-2.025-1.241-3.879-1.843-5.482c-0.56-1.628-1.141-2.984-1.58-4.123c-0.475-1.1-0.85-1.997-1.092-2.491
		c-0.271-0.57-0.416-0.874-0.416-0.874L83.588,86.57z"/>
</g>
<polygon fill="#333E48" stroke="#003B4C" stroke-width="0.8679" stroke-miterlimit="10" points="45.816,289.751 36.928,289.751 
	13.876,292.756 13.876,295.502 40.248,295.502 40.706,293.122 41.164,295.502 45.816,295.502 "/>
<polygon fill="#333E48" stroke="#003B4C" stroke-width="0.8679" stroke-miterlimit="10" points="66.982,289.751 75.871,289.751 
	98.922,292.756 98.922,295.502 72.55,295.502 72.092,293.122 71.634,295.502 66.982,295.502 "/>
<path fill="#00A7CE" d="M36.211,289.751L33.936,161.14h46.022l-2.157,128.611H66.24c0,0,4.624-102.661-7.214-107.241
	C47.184,177.932,46.03,289.751,46.03,289.751H36.211z"/>
<polygon opacity="0.25" fill="#00A7CE" points="79.828,167.714 79.929,162.941 33.968,162.941 34.074,167.714 "/>
<path opacity="0.5" fill="#00A7CE" d="M34.137,172.487c0,0,8.035-0.595,8.951-9.546h-9.12L34.137,172.487z"/>
<path opacity="0.5" fill="#00A7CE" d="M79.929,162.941l-0.169,10.097c0,0-10.054-1.251-10.818-10.195L79.929,162.941z"/>
<path fill="none" stroke="#9BDAD9" stroke-width="0.6566" stroke-miterlimit="10" stroke-dasharray="1.3131" d="M43.087,289.751
	c0,0-0.46-109.664,15.474-109.664s10.38,109.664,10.38,109.664"/>
<g>
	<path fill="#B3B3B3" d="M80.077,162.742l1.372-75.315c0,0-8.76-6.725-19.423-6.679l-10.993,0.048
		c-10.664,0.046-19.224,6.306-19.224,6.306l1.878,75.84L80.077,162.742z"/>
</g>
<path fill="#DBC5AF" d="M49.377,80.805l7.392,11.885l6.108-11.885C62.877,80.805,53.308,80.039,49.377,80.805z"/>
<path fill="#DBC5AF" d="M25.086,182.974c0,0-0.416,5.528-5.46,6.263c-2.486,0.361-2.247,6.633,3.521,3.076
	c0,0-2.515,7.645-0.621,8.901c1.411,0.935,3.943-7.948,3.943-7.948s-0.187,9.786,3.216,9.491c1.572-0.137-0.013-10.101-0.013-10.101
	s2.978,8.129,4.878,7.561c1.81-0.543-2.384-8.75-2.384-8.75s2.889,3.275,4.38,0.854c0.826-1.342-6.266-5.779-6.044-10.365
	L25.086,182.974z"/>
<polygon fill="#DBC5AF" points="62.891,80.745 61.361,80.412 61.304,67.166 50.647,72.804 50.68,80.514 49.377,80.805 53.75,84.321 
	53.761,87.427 58.5,87.394 58.323,85.382 59.209,83.823 "/>
<path opacity="0.25" fill="#DBC5AF" d="M50.767,77.42c4.153,2.811,7.875,3.953,12.11,3.385l0.014-0.06l-1.53-0.333l-0.057-13.246
	l-10.657,5.638l0.021,4.554C50.702,77.38,50.732,77.395,50.767,77.42z"/>
<polygon fill="#CCE9F2" points="33.687,162.941 32.302,97.931 38.527,162.941 "/>
<polygon fill="#CCE9F2" points="80.077,162.742 81.449,97.931 74.188,162.941 "/>
<g>
	<path fill="#99A4AE" d="M49.376,80.804c-1.008,0.54-2.037,1.028-3.056,1.541c-1.024,0.502-2.062,0.971-3.092,1.458l0.072-0.627
		c1.301,0.86,2.573,1.76,3.85,2.651c1.263,0.912,2.54,1.805,3.789,2.735l0.697,0.52l-0.792,0.34
		c-1.262,0.542-2.526,1.078-3.799,1.595l-0.049-0.841c1.539,0.482,3.058,1.034,4.587,1.548c0.766,0.255,1.523,0.535,2.281,0.816
		c0.758,0.278,1.517,0.557,2.269,0.858c-0.793-0.163-1.579-0.352-2.365-0.538c-0.787-0.185-1.573-0.37-2.352-0.581
		c-1.559-0.417-3.129-0.796-4.679-1.245l-1.149-0.332l1.1-0.509c1.247-0.576,2.502-1.133,3.76-1.685l-0.095,0.859
		c-1.271-0.901-2.514-1.841-3.771-2.761c-1.242-0.94-2.49-1.873-3.709-2.846l-0.511-0.407l0.583-0.22
		c1.066-0.4,2.125-0.82,3.198-1.207C47.221,81.553,48.288,81.153,49.376,80.804z"/>
</g>
<g>
	<path fill="#99A4AE" d="M63.899,80.804c0.725,0.426,1.42,0.891,2.128,1.339c0.706,0.451,1.396,0.923,2.086,1.394l0.385,0.263
		l-0.389,0.314c-1.942,1.568-3.937,3.066-5.944,4.548l-0.055-0.845c0.851,0.483,1.71,0.953,2.55,1.457l0.672,0.403l-0.65,0.387
		c-1.005,0.597-2.022,1.175-3.05,1.734c-1.027,0.562-2.073,1.094-3.134,1.601c0.919-0.734,1.853-1.443,2.806-2.123
		c0.951-0.682,1.915-1.346,2.89-1.989l0.022,0.79c-0.874-0.441-1.729-0.918-2.592-1.38l-0.698-0.374l0.643-0.471
		c2.012-1.474,4.037-2.932,6.113-4.318l-0.003,0.577c-0.642-0.536-1.285-1.07-1.912-1.626
		C65.145,81.927,64.507,81.385,63.899,80.804z"/>
</g>
<path fill="#F38B00" d="M40.525,82.72c0.814,1.537,17.023,32.123,17.023,32.123v47.934l-23.861,0.165l-1.025-48.099l-1.978-26.981
	C30.684,87.861,35.36,82.582,40.525,82.72z"/>
<g>
	<path fill="#F38B00" d="M40.662,92.211c0,0-0.145,0.305-0.415,0.875c-0.243,0.493-0.618,1.391-1.092,2.49
		c-0.439,1.139-1.02,2.495-1.58,4.123c-0.603,1.604-1.197,3.457-1.843,5.482c-0.345,1.005-0.609,2.087-0.935,3.188
		c-0.302,1.11-0.668,2.241-0.938,3.438c-0.583,2.38-1.226,4.885-1.719,7.521c-0.253,1.315-0.573,2.643-0.785,4.007
		c-0.22,1.364-0.443,2.745-0.668,4.137c-0.11,0.696-0.221,1.396-0.332,2.098c-0.083,0.706-0.167,1.414-0.25,2.123
		c-0.167,1.42-0.336,2.845-0.504,4.271c-0.282,2.856-0.436,5.728-0.66,8.551c-0.078,2.833-0.153,5.621-0.227,8.318
		c0.016,2.7,0.11,5.312,0.156,7.791c0.016,0.62,0.031,1.231,0.046,1.834c0.044,0.601,0.088,1.191,0.131,1.773
		c0.085,1.164,0.168,2.289,0.248,3.369c0.181,2.158,0.246,4.149,0.515,5.892c0.221,1.748,0.414,3.272,0.572,4.528
		c0.316,2.514,0.498,3.95,0.498,3.95l-6.132,1.087c0,0-0.256-1.473-0.705-4.049c-0.225-1.289-0.496-2.854-0.809-4.651
		c-0.359-1.79-0.526-3.844-0.817-6.07c-0.134-1.115-0.274-2.277-0.419-3.48c-0.072-0.602-0.146-1.214-0.221-1.835
		c-0.045-0.624-0.091-1.258-0.138-1.899c-0.169-2.57-0.392-5.282-0.539-8.094c-0.054-2.816-0.11-5.727-0.167-8.684
		c0.093-2.957,0.117-5.969,0.273-8.977c0.106-1.503,0.213-3.006,0.319-4.503c0.053-0.749,0.107-1.497,0.16-2.242
		c0.082-0.743,0.163-1.483,0.244-2.222c0.169-1.477,0.336-2.941,0.502-4.389c0.159-1.449,0.427-2.866,0.631-4.27
		c0.394-2.809,0.949-5.499,1.452-8.057c0.229-1.283,0.56-2.512,0.829-3.711c0.293-1.194,0.524-2.358,0.842-3.459
		c0.591-2.209,1.141-4.234,1.716-6.018c0.526-1.788,1.1-3.339,1.53-4.621c0.485-1.289,0.843-2.275,1.169-3.039
		c0.29-0.688,0.444-1.057,0.444-1.057L40.662,92.211z"/>
</g>
<path fill="#F38B00" d="M72.526,82.72l-14.978,32.123v47.934l22.529-0.034l2.357-47.899c0,0,2.752-26.399,1.422-28.266
	C78.359,83.469,72.526,82.72,72.526,82.72z"/>
<g>
	<path fill="#99A4AE" d="M57.548,114.843c0,0-0.044-0.346-0.098-0.951c-0.043-0.606-0.134-1.472-0.191-2.51
		c-0.128-2.077-0.212-4.847-0.216-7.615c0.003-2.77,0.086-5.539,0.215-7.616c0.057-1.038,0.148-1.903,0.192-2.509
		c0.053-0.606,0.098-0.952,0.098-0.952s0.045,0.346,0.098,0.952c0.043,0.605,0.135,1.471,0.192,2.509
		c0.128,2.077,0.212,4.847,0.215,7.616c-0.004,2.769-0.089,5.538-0.216,7.615c-0.057,1.038-0.147,1.903-0.191,2.51
		C57.593,114.497,57.548,114.843,57.548,114.843z"/>
</g>
<circle fill="#99A4AE" cx="60.236" cy="96.59" r="0.631"/>
<circle fill="#99A4AE" cx="60.236" cy="103.766" r="0.631"/>
<circle opacity="0.5" fill="#F38B00" cx="60.236" cy="119.553" r="0.631"/>
<circle opacity="0.5" fill="#F38B00" cx="60.236" cy="127.578" r="0.631"/>
<circle opacity="0.5" fill="#F38B00" cx="60.236" cy="135.605" r="0.631"/>
<circle opacity="0.5" fill="#F38B00" cx="60.236" cy="143.631" r="0.631"/>
<circle opacity="0.5" fill="#F38B00" cx="60.236" cy="151.657" r="0.631"/>
<path fill="#DBC5AF" d="M41.415,42.588c0.015,3.12-2.505,5.659-5.62,5.673c-3.121,0.013-5.661-2.505-5.676-5.624
	c-0.011-3.12,2.505-5.66,5.626-5.675C38.863,36.95,41.401,39.467,41.415,42.588z"/>
<circle fill="#DBC5AF" cx="76.489" cy="42.438" r="5.647"/>
<path fill="#DBC5AF" d="M37.76,23.539l0.228,30.795c0.048,11.732,6.289,21.217,18.021,21.166
	c11.727-0.05,17.887-9.589,17.837-21.319l0.299-30.823L37.76,23.539z"/>
<path opacity="0.25" fill="#DBC5AF" d="M48.523,38.645c-1.397-1.399-4.091-1.712-6.015-0.698c-1.927,1.018-2.359,2.974-0.962,4.372
	c1.399,1.402,4.092,1.712,6.02,0.698C49.491,41.999,49.92,40.044,48.523,38.645z"/>
<path fill="#FFFFFF" d="M48.523,38.314c-1.4-1.399-4.09-1.712-6.022-0.698c-1.923,1.015-2.352,2.974-0.955,4.37
	c1.399,1.401,4.089,1.715,6.015,0.7C49.489,41.672,49.92,39.714,48.523,38.314z"/>
<path fill="#DBC5AF" d="M41.519,37.752c0,0,4.982-0.961,7.914,0.783l-2.165-2.169l-3.892-0.324L41.519,37.752z"/>
<path fill="#F2F2F2" d="M47.556,41.857c-1.923,1.018-4.618,0.706-6.017-0.697c-0.438-0.44-0.678-0.938-0.765-1.445
	c-0.151,0.776,0.091,1.589,0.772,2.271c1.399,1.401,4.089,1.715,6.015,0.7c1.322-0.697,1.918-1.831,1.728-2.931
	C49.132,40.571,48.543,41.34,47.556,41.857z"/>
<path fill="#DBC5AF" d="M61.414,36.886c0,0,4.982-1.322,7.914,1.078l-2.165-2.985l-3.889-0.445L61.414,36.886z"/>
<path opacity="0.25" fill="#DBC5AF" d="M75.199,39.006c0,0,4.813-1.25,4.907,2.064c0.095,3.32-2.428,5.107-2.428,5.107
	s0.938-3.319-0.018-4.853C76.704,39.791,75.199,39.006,75.199,39.006z"/>
<path opacity="0.25" fill="#DBC5AF" d="M36.383,39.172c0,0-4.819-1.209-4.887,2.107c-0.066,3.32,2.472,5.085,2.472,5.085
	s-0.964-3.311-0.023-4.853C34.889,39.971,36.383,39.172,36.383,39.172z"/>
<path opacity="0.25" fill="#DBC5AF" d="M61.926,38.531c1.398-1.398,4.092-1.712,6.015-0.697c1.928,1.017,2.359,2.973,0.963,4.372
	c-1.4,1.402-4.093,1.711-6.02,0.698C60.959,41.887,60.529,39.931,61.926,38.531z"/>
<path fill="#FFFFFF" d="M61.926,38.201c1.4-1.398,4.09-1.712,6.022-0.698c1.923,1.016,2.352,2.974,0.956,4.37
	c-1.4,1.402-4.09,1.715-6.015,0.701C60.96,41.559,60.53,39.601,61.926,38.201z"/>
<path fill="#DBC5AF" d="M68.931,37.64c0,0-4.981-0.962-7.914,0.782l2.165-2.168l3.892-0.324L68.931,37.64z"/>
<path fill="#F2F2F2" d="M62.894,41.744c1.923,1.019,4.618,0.706,6.017-0.696c0.438-0.441,0.678-0.938,0.765-1.445
	c0.151,0.775-0.09,1.589-0.771,2.271c-1.4,1.402-4.09,1.715-6.015,0.701c-1.322-0.698-1.918-1.831-1.728-2.931
	C61.318,40.458,61.906,41.227,62.894,41.744z"/>
<g>
	<path fill="#C1A78F" d="M56.304,38.573c0,0-0.103,1.725-0.357,4.301c-0.299,2.576-0.65,5.997-1.49,9.422
		c-0.111,0.431-0.234,0.861-0.398,1.305c-0.088,0.224-0.177,0.446-0.338,0.704l-0.142,0.199l-0.098,0.121l-0.192,0.239
		c-0.492,0.604-0.93,1.274-1.141,1.908c-0.215,0.664-0.143,1.116,0.241,1.402c0.392,0.323,1.048,0.482,1.632,0.553
		c1.199,0.131,2.27,0.054,3.004,0.009c0.742-0.062,1.166-0.098,1.166-0.098c0.195-0.016,0.367,0.129,0.383,0.324
		c0.014,0.173-0.097,0.327-0.259,0.372l-0.005,0.001c0,0-0.42,0.117-1.174,0.253c-0.757,0.127-1.837,0.345-3.217,0.268
		c-0.683-0.056-1.478-0.12-2.297-0.671c-0.402-0.277-0.747-0.781-0.848-1.317c-0.113-0.539-0.019-1.042,0.114-1.493
		c0.288-0.905,0.778-1.655,1.333-2.376c0.341-0.403,0.421-0.479,0.577-0.889c0.139-0.359,0.26-0.754,0.37-1.155
		c0.436-1.615,0.722-3.311,1.017-4.885c0.29-1.579,0.532-3.062,0.729-4.334c0.413-2.544,0.688-4.239,0.688-4.239
		c0.031-0.193,0.212-0.325,0.405-0.294C56.187,38.231,56.314,38.395,56.304,38.573z"/>
</g>
<g>
	<path fill="#C1A78F" d="M52.225,64.035c0,0,0.535,0.336,1.359,0.655c0.409,0.162,0.892,0.309,1.409,0.399
		c0.256,0.057,0.524,0.08,0.796,0.094c0.268,0.046,0.546-0.001,0.818,0.006c0.273-0.03,0.548-0.052,0.815-0.095
		c0.264-0.076,0.533-0.104,0.787-0.177c0.25-0.089,0.497-0.16,0.734-0.226c0.229-0.092,0.447-0.184,0.654-0.258
		c0.42-0.139,0.743-0.333,0.995-0.424c0.246-0.103,0.396-0.154,0.396-0.154l0.03-0.011c0.158-0.056,0.331,0.027,0.386,0.186
		c0.037,0.107,0.01,0.223-0.061,0.303c0,0-0.108,0.119-0.312,0.316c-0.212,0.186-0.483,0.503-0.909,0.754
		c-0.206,0.137-0.429,0.287-0.679,0.425c-0.259,0.121-0.536,0.247-0.829,0.362c-0.298,0.105-0.62,0.186-0.946,0.261
		c-0.332,0.05-0.675,0.089-1.017,0.104c-0.344-0.028-0.69-0.01-1.021-0.088c-0.336-0.049-0.654-0.144-0.954-0.254
		c-0.307-0.088-0.572-0.257-0.83-0.381c-0.247-0.149-0.476-0.294-0.667-0.456c-0.786-0.616-1.083-1.224-1.083-1.224
		c-0.024-0.044-0.007-0.098,0.037-0.122C52.163,64.018,52.198,64.021,52.225,64.035z"/>
</g>
<path fill="#004456" d="M49.413,38.273c-0.734-1.006-2.145-1.232-3.154-0.502c-1.014,0.731-1.239,2.148-0.506,3.159
	c0.733,1.012,2.146,1.233,3.156,0.502C49.921,40.7,50.151,39.286,49.413,38.273z"/>
<path fill="#004456" d="M69.82,38.273c-0.734-1.006-2.145-1.232-3.155-0.502c-1.014,0.731-1.238,2.148-0.505,3.159
	c0.733,1.012,2.146,1.233,3.157,0.502C70.328,40.7,70.558,39.286,69.82,38.273z"/>
<circle fill="#DBC5AF" cx="47.774" cy="27.254" r="10.014"/>
<circle fill="#DBC5AF" cx="64.36" cy="27.254" r="10.014"/>
<rect x="47.834" y="17.24" fill="#DBC5AF" width="17.14" height="7.998"/>
<path fill="#99A4AE" d="M34.996,36.93c0,0-0.927-17.965,4.134-16.552c5.061,1.413,4.434,14.896,3.257,15.361
	C41.211,36.203,40.072,38.42,34.996,36.93z"/>
<path fill="#99A4AE" d="M77.695,36.93c0,0,0.926-17.965-4.135-16.552c-5.061,1.413-4.433,14.896-3.257,15.361
	C71.48,36.203,72.619,38.42,77.695,36.93z"/>
<g>
	<path fill="#333E48" d="M59.271,34.575c0,0,0.712-0.871,2.125-1.634c0.701-0.387,1.568-0.766,2.562-0.979
		c0.5-0.09,1.025-0.148,1.566-0.147c0.539-0.001,1.087-0.009,1.636,0.067c0.547,0.044,1.096,0.157,1.62,0.305
		c0.271,0.093,0.496,0.148,0.794,0.272c0.223,0.104,0.443,0.208,0.66,0.31c0.218,0.102,0.431,0.202,0.64,0.3
		c0.21,0.134,0.416,0.264,0.616,0.391c0.195,0.133,0.392,0.247,0.563,0.384c0.163,0.146,0.321,0.286,0.472,0.422
		c0.316,0.248,0.523,0.576,0.734,0.82c0.178,0.276,0.326,0.524,0.406,0.747c0.179,0.437,0.172,0.727,0.172,0.727l-0.184,0.013
		c0,0-0.006-0.051-0.054-0.158c-0.034-0.107-0.114-0.255-0.227-0.435c-0.111-0.178-0.287-0.376-0.481-0.59
		c-0.234-0.188-0.449-0.437-0.778-0.611c-0.154-0.096-0.314-0.196-0.479-0.299c-0.171-0.093-0.362-0.161-0.547-0.246
		c-0.185-0.083-0.374-0.168-0.568-0.255c-0.22-0.069-0.445-0.14-0.674-0.211c-0.229-0.072-0.461-0.145-0.697-0.219
		c-0.165-0.041-0.433-0.078-0.644-0.12c-0.456-0.062-0.923-0.096-1.396-0.067c-0.468,0.011-0.944,0.08-1.402,0.177
		c-0.458,0.105-0.909,0.209-1.346,0.31c-0.439,0.096-0.865,0.185-1.28,0.257c-0.416,0.08-0.81,0.156-1.172,0.227
		c-1.465,0.286-2.546,0.407-2.546,0.407L59.271,34.575z"/>
</g>
<g>
	<path fill="#333E48" d="M37.035,39.191c0,0,0.583-0.858,1.681-1.967c0.27-0.282,0.578-0.572,0.911-0.875
		c0.332-0.306,0.709-0.595,1.104-0.895c0.404-0.287,0.827-0.582,1.287-0.844c0.458-0.263,0.936-0.523,1.452-0.719
		c0.503-0.225,1.045-0.379,1.59-0.514c0.297-0.049,0.508-0.122,0.877-0.143c0.246-0.019,0.489-0.019,0.729-0.023
		c0.239,0.008,0.474,0.004,0.704,0.024c0.259,0.042,0.518,0.093,0.762,0.152c0.245,0.062,0.484,0.105,0.706,0.179
		c0.214,0.096,0.421,0.188,0.619,0.275c0.396,0.149,0.719,0.439,0.997,0.638c0.262,0.247,0.474,0.474,0.607,0.694
		c0.136,0.219,0.22,0.397,0.253,0.535c0.042,0.125,0.05,0.207,0.05,0.207l-0.168,0.078c0,0-0.041-0.039-0.148-0.101
		c-0.095-0.066-0.249-0.145-0.438-0.232c-0.187-0.087-0.434-0.163-0.694-0.244c-0.291-0.049-0.565-0.15-0.922-0.17
		c-0.342-0.046-0.701-0.091-1.08-0.084c-0.189,0-0.376-0.018-0.573-0.035c-0.23,0.016-0.465,0.006-0.704,0.009
		c-0.239-0.011-0.482-0.018-0.728-0.041c-0.122-0.012-0.406,0.002-0.607-0.003c-0.445,0.016-0.906,0.08-1.362,0.201
		c-1.845,0.462-3.567,1.563-4.794,2.428c-1.227,0.887-1.971,1.589-1.971,1.589L37.035,39.191z"/>
</g>
<path fill="none" stroke="#333E48" stroke-width="0.434" stroke-miterlimit="10" d="M52.09,40.304c0,2.175-1.763,3.938-3.938,3.938
	h-5.534c-2.175,0-3.938-1.763-3.938-3.938l0,0c0-2.175,1.763-3.938,3.938-3.938h5.534C50.327,36.366,52.09,38.129,52.09,40.304
	L52.09,40.304z"/>
<path fill="none" stroke="#333E48" stroke-width="0.434" stroke-miterlimit="10" d="M71.679,40.304c0,2.175-1.763,3.938-3.938,3.938
	h-5.534c-2.174,0-3.938-1.763-3.938-3.938l0,0c0-2.175,1.763-3.938,3.938-3.938h5.534C69.916,36.366,71.679,38.129,71.679,40.304
	L71.679,40.304z"/>
<path fill="none" stroke="#333E48" stroke-width="0.434" stroke-miterlimit="10" d="M51.782,38.775c0,0,4.032-2.656,6.729,0.182"/>
<circle fill="#FFCE00" cx="108.874" cy="55.663" r="7.434"/>
<path fill="#FFCE00" d="M102.006,52.818c0,0,4.918-7.725,4.918-12.545h1.949v12.545H102.006z"/>
<path fill="#FFCE00" d="M115.741,52.818c0,0-4.917-7.725-4.917-12.545h-1.95v12.545H115.741z"/>
<path fill="#99A4AE" d="M111.97,39.185c0,0.602-0.487,1.089-1.089,1.089h-4.015c-0.602,0-1.089-0.487-1.089-1.089l0,0
	c0-0.602,0.488-1.09,1.089-1.09h4.015C111.483,38.095,111.97,38.583,111.97,39.185L111.97,39.185z"/>
<path fill="#99A4AE" d="M111.97,37.006c0,0.602-0.487,1.089-1.089,1.089h-4.015c-0.602,0-1.089-0.487-1.089-1.089l0,0
	c0-0.602,0.488-1.09,1.089-1.09h4.015C111.483,35.916,111.97,36.404,111.97,37.006L111.97,37.006z"/>
<circle fill="#99A4AE" cx="108.874" cy="35.916" r="1.897"/>
<line fill="none" stroke="#FFFFFF" stroke-width="0.6882" stroke-miterlimit="10" x1="108.874" y1="40.273" x2="108.874" y2="44.843"/>
<circle fill="none" stroke="#FFFFFF" stroke-width="0.6882" stroke-miterlimit="10" cx="108.874" cy="45.928" r="1.085"/>
<line fill="none" stroke="#99A4AE" stroke-miterlimit="10" x1="108.874" y1="35.916" x2="108.874" y2="0.931"/>
<rect x="97.042" y="-0.403" fill="#99A4AE" width="23.664" height="2.668"/>
<line fill="none" stroke="#99A4AE" stroke-width="2" stroke-linecap="round" stroke-miterlimit="10" stroke-dasharray="0,2" x1="115.741" y1="2.265" x2="115.741" y2="19.659"/>
</svg>
